<svg width="166" height="47" viewBox="0 0 166 47" fill="none" xmlns="http://www.w3.org/2000/svg">
<ellipse cx="152.628" cy="12.7865" rx="13.3722" ry="12.5365" fill="url(#paint0_linear_21_468)"/>
<path d="M17.7264 27.6625C18.7812 27.8873 19.6285 28.4147 20.2683 29.2447C20.9081 30.0574 21.228 30.9911 21.228 32.0459C21.228 33.5676 20.6919 34.778 19.6198 35.6772C18.5651 36.5591 17.0866 37 15.1845 37H6.70297V18.7919H14.8992C16.7494 18.7919 18.1933 19.2155 19.2308 20.0628C20.2856 20.9101 20.813 22.06 20.813 23.5125C20.813 24.5846 20.5277 25.4751 19.957 26.1841C19.4037 26.893 18.6602 27.3858 17.7264 27.6625ZM11.1383 26.1581H14.0433C14.7695 26.1581 15.3229 26.0025 15.7033 25.6912C16.101 25.3627 16.2998 24.8872 16.2998 24.2647C16.2998 23.6422 16.101 23.1667 15.7033 22.8381C15.3229 22.5096 14.7695 22.3453 14.0433 22.3453H11.1383V26.1581ZM14.4064 33.4206C15.15 33.4206 15.7206 33.2564 16.1183 32.9278C16.5333 32.582 16.7408 32.0892 16.7408 31.4494C16.7408 30.8096 16.5246 30.3081 16.0923 29.945C15.6773 29.5819 15.0981 29.4003 14.3545 29.4003H11.1383V33.4206H14.4064ZM26.0311 21.0225C25.2529 21.0225 24.6132 20.7977 24.1117 20.3481C23.6275 19.8812 23.3854 19.3106 23.3854 18.6362C23.3854 17.9446 23.6275 17.374 24.1117 16.9244C24.6132 16.4575 25.2529 16.2241 26.0311 16.2241C26.7919 16.2241 27.4144 16.4575 27.8986 16.9244C28.4 17.374 28.6508 17.9446 28.6508 18.6362C28.6508 19.3106 28.4 19.8812 27.8986 20.3481C27.4144 20.7977 26.7919 21.0225 26.0311 21.0225ZM28.2358 22.5269V37H23.8004V22.5269H28.2358ZM35.8853 24.5759C36.3003 23.9016 36.8969 23.3569 37.675 22.9419C38.4531 22.5269 39.3436 22.3194 40.3465 22.3194C41.5397 22.3194 42.6204 22.622 43.5887 23.2272C44.5571 23.8324 45.3179 24.697 45.8712 25.8209C46.4419 26.9449 46.7272 28.2504 46.7272 29.7375C46.7272 31.2246 46.4419 32.5387 45.8712 33.68C45.3179 34.804 44.5571 35.6772 43.5887 36.2997C42.6204 36.9049 41.5397 37.2075 40.3465 37.2075C39.3263 37.2075 38.4358 37.0086 37.675 36.6109C36.9141 36.1959 36.3176 35.6512 35.8853 34.9769V37H31.45V17.8062H35.8853V24.5759ZM42.214 29.7375C42.214 28.6308 41.9028 27.7662 41.2803 27.1437C40.6751 26.504 39.9229 26.1841 39.0237 26.1841C38.1419 26.1841 37.3897 26.504 36.7672 27.1437C36.162 27.7835 35.8594 28.6568 35.8594 29.7634C35.8594 30.8701 36.162 31.7433 36.7672 32.3831C37.3897 33.0229 38.1419 33.3428 39.0237 33.3428C39.9056 33.3428 40.6578 33.0229 41.2803 32.3831C41.9028 31.726 42.214 30.8442 42.214 29.7375ZM53.4894 17.8062V37H49.054V17.8062H53.4894ZM58.9342 21.0225C58.1561 21.0225 57.5163 20.7977 57.0148 20.3481C56.5307 19.8812 56.2886 19.3106 56.2886 18.6362C56.2886 17.9446 56.5307 17.374 57.0148 16.9244C57.5163 16.4575 58.1561 16.2241 58.9342 16.2241C59.695 16.2241 60.3175 16.4575 60.8017 16.9244C61.3032 17.374 61.5539 17.9446 61.5539 18.6362C61.5539 19.3106 61.3032 19.8812 60.8017 20.3481C60.3175 20.7977 59.695 21.0225 58.9342 21.0225ZM61.1389 22.5269V37H56.7036V22.5269H61.1389ZM70.9412 37.2075C69.5233 37.2075 68.2437 36.9049 67.1025 36.2997C65.9785 35.6945 65.088 34.8299 64.4309 33.7059C63.7911 32.582 63.4712 31.2678 63.4712 29.7634C63.4712 28.2764 63.7998 26.9708 64.4569 25.8469C65.114 24.7056 66.0131 23.8324 67.1544 23.2272C68.2956 22.622 69.5752 22.3194 70.9931 22.3194C72.411 22.3194 73.6906 22.622 74.8319 23.2272C75.9731 23.8324 76.8723 24.7056 77.5294 25.8469C78.1865 26.9708 78.515 28.2764 78.515 29.7634C78.515 31.2505 78.1778 32.5647 77.5034 33.7059C76.8463 34.8299 75.9385 35.6945 74.78 36.2997C73.6387 36.9049 72.3592 37.2075 70.9412 37.2075ZM70.9412 33.3687C71.7885 33.3687 72.5061 33.0575 73.0941 32.435C73.6993 31.8125 74.0019 30.922 74.0019 29.7634C74.0019 28.6049 73.7079 27.7144 73.12 27.0919C72.5494 26.4694 71.8404 26.1581 70.9931 26.1581C70.1285 26.1581 69.4109 26.4694 68.8403 27.0919C68.2697 27.6971 67.9844 28.5876 67.9844 29.7634C67.9844 30.922 68.261 31.8125 68.8144 32.435C69.385 33.0575 70.094 33.3687 70.9412 33.3687ZM90.7998 22.3453V26.0284H96.7395V29.4522H90.7998V33.4466H97.5177V37H86.3645V18.7919H97.5177V22.3453H90.7998ZM106.285 37.2075C105.023 37.2075 103.899 36.9914 102.913 36.5591C101.927 36.1268 101.149 35.5389 100.579 34.7953C100.008 34.0345 99.6882 33.1872 99.619 32.2534H104.002C104.054 32.7549 104.288 33.1612 104.703 33.4725C105.118 33.7837 105.628 33.9394 106.233 33.9394C106.786 33.9394 107.21 33.8356 107.504 33.6281C107.815 33.4033 107.971 33.118 107.971 32.7722C107.971 32.3572 107.755 32.0546 107.322 31.8644C106.89 31.6569 106.19 31.4321 105.222 31.19C104.184 30.9479 103.319 30.6972 102.628 30.4378C101.936 30.1611 101.34 29.7375 100.838 29.1669C100.337 28.579 100.086 27.7922 100.086 26.8066C100.086 25.9766 100.311 25.2244 100.76 24.55C101.227 23.8583 101.902 23.3136 102.783 22.9159C103.683 22.5182 104.746 22.3194 105.974 22.3194C107.789 22.3194 109.216 22.769 110.253 23.6681C111.308 24.5673 111.913 25.7604 112.069 27.2475H107.971C107.902 26.746 107.677 26.3483 107.297 26.0544C106.933 25.7604 106.449 25.6134 105.844 25.6134C105.325 25.6134 104.928 25.7172 104.651 25.9247C104.374 26.1149 104.236 26.3829 104.236 26.7287C104.236 27.1437 104.452 27.455 104.884 27.6625C105.334 27.87 106.026 28.0775 106.959 28.285C108.031 28.5617 108.905 28.8383 109.579 29.115C110.253 29.3744 110.841 29.8067 111.343 30.4119C111.862 30.9998 112.13 31.7952 112.147 32.7981C112.147 33.6454 111.905 34.4062 111.421 35.0806C110.954 35.7377 110.271 36.2565 109.372 36.6369C108.49 37.0173 107.461 37.2075 106.285 37.2075ZM122.927 33.2391V37H120.67C119.062 37 117.809 36.6109 116.909 35.8328C116.01 35.0374 115.561 33.7492 115.561 31.9681V26.21H113.797V22.5269H115.561V18.9994H119.996V22.5269H122.901V26.21H119.996V32.02C119.996 32.4523 120.1 32.7635 120.307 32.9537C120.515 33.144 120.861 33.2391 121.345 33.2391H122.927ZM127.628 21.0225C126.85 21.0225 126.21 20.7977 125.709 20.3481C125.225 19.8812 124.982 19.3106 124.982 18.6362C124.982 17.9446 125.225 17.374 125.709 16.9244C126.21 16.4575 126.85 16.2241 127.628 16.2241C128.389 16.2241 129.011 16.4575 129.496 16.9244C129.997 17.374 130.248 17.9446 130.248 18.6362C130.248 19.3106 129.997 19.8812 129.496 20.3481C129.011 20.7977 128.389 21.0225 127.628 21.0225ZM129.833 22.5269V37H125.397V22.5269H129.833ZM141.866 22.3712C143.56 22.3712 144.909 22.9246 145.912 24.0312C146.932 25.1206 147.442 26.625 147.442 28.5444V37H143.033V29.1409C143.033 28.1726 142.782 27.4204 142.281 26.8844C141.779 26.3483 141.105 26.0803 140.258 26.0803C139.41 26.0803 138.736 26.3483 138.234 26.8844C137.733 27.4204 137.482 28.1726 137.482 29.1409V37H133.047V22.5269H137.482V24.4462C137.932 23.8065 138.537 23.305 139.298 22.9419C140.059 22.5615 140.915 22.3712 141.866 22.3712Z" fill="#002533"/>
<defs>
<linearGradient id="paint0_linear_21_468" x1="141.749" y1="15.3362" x2="184.194" y2="7.6299" gradientUnits="userSpaceOnUse">
<stop stop-color="#F1413E"/>
<stop offset="1" stop-color="#F1413E" stop-opacity="0"/>
</linearGradient>
</defs>
</svg>
